<?xml version="1.0" encoding="utf-8"?>
<!-- Uploaded to: SVG Repo, www.svgrepo.com, Generator: SVG Repo Mixer Tools -->
<svg fill="#FFFFFF" height="800px" width="800px" version="1.1" id="lockdown" xmlns="http://www.w3.org/2000/svg" xmlns:xlink="http://www.w3.org/1999/xlink" 
	 viewBox="0 0 128 128" xml:space="preserve">
<path d="M122.7,21.3v-7.6c0-7.4-6.1-13.5-13.5-13.5c-7.4,0-13.5,6.1-13.5,13.5v7.6h-4.3v32.3h35V21.3H122.7z M109,44.1
	c-3.7,0-6.6-3-6.6-6.6s3-6.6,6.6-6.6c3.7,0,6.6,3,6.6,6.6S112.7,44.1,109,44.1z M117.4,21.3h-3h-13.2v-7.6c0-4.4,3.6-8.1,8.1-8.1
	s8.1,3.6,8.1,8.1V21.3z M49.1,126.9c25-1.5,43.9-23,42.3-47.9c-1.5-25-23-43.9-47.9-42.3c-25,1.5-43.9,23-42.3,47.9
	C2.7,109.5,24.2,128.4,49.1,126.9z M36.2,72.5c-1.3-2.4,2.3-3.8,4.2-5.7c2.3-2.4,7.3-6.5,6.7-8c-0.6-1.6-5.7-6.1-8.4-5.1
	c-0.6,0-3.8,3.6-4.5,4.2c0-1.3-0.2-2-0.2-3.1c0-0.8-1.6-1.5-1.5-2.1c0.1-1.4,3.6-4,4.4-5.1c-0.7-0.5-3-2.1-3.6-1.8
	c-1.5,0.8-3.4,1.4-5,2.1c0-0.6-0.1-1.2-0.2-1.5c3.1-1.6,6.5-2.8,9.9-3.6L41,44l2.3,2.4l2.3,2.2c0,0,1.4,0.6,2,0.6
	c0.7-0.1,2.9-3,2.9-3L49.6,44l-0.1-2c6.2,0.6,12,2.4,17.2,5.7c-0.8,0.1-2,0.2-3,0.6c-0.5-0.2-2.9,0.2-2.8,1.3
	c0.1,0.8,4.4,4.3,6.2,7.3c1.8,3.1,7,5.1,8,8.5c0.9,4-0.6,9.2,0.1,14.1c0.7,4.7,5.9,9.7,5.9,9.7s2.3,0.7,4.2,0.2
	c-1.4,7-4.5,13.5-9.4,19.1c-5.4,6.1-12.2,10.4-20,12.2c0.9-2.8,2.8-5.4,4.5-6.9c1.5-1.4,3.4-3.8,4-5.7c0.7-2,1.6-3.6,2.8-5.4
	c1.4-2.4-4.3-5.9-6.1-6.5c-4.2-1.5-7.3-3.6-10.9-5.9c-2.7-1.6-10.6,2.1-13.6,0.9c-4-1.5-5.4-2.8-9-5.1c-3.7-2.4-2.7-7.6-2.9-11.4
	c2.8,0,6.6-1.2,8.5,0.9c0.6,0.7,2.8,3.6,4,2.4C38.7,76.8,36.7,73.3,36.2,72.5z M14,58.3c0.2,2,1.3,3.5,1.3,4.9c0,5.4-0.5,8.7,3,12.9
	c1.4,1.6,1.8,4.2,2.4,6.2c0.7,2,3,2.9,4.7,4c3.4,2.2,6.6,5,10.2,6.9c2.3,1.3,3.7,2,3.4,4.7c-0.5,2.2-0.5,3.6-1.5,5.7
	c-0.2,0.7,1.6,4.4,2.2,4.9c1.8,1.5,3.6,3,5.5,4.4c3,2.2,0,5.4-1.2,8.8c-8.8-0.6-17.2-4-24-9.9c-8-7-12.7-16.9-13.4-27.4
	C5.9,74.7,8.2,65.8,14,58.3z"/>
</svg>