<?xml version="1.0" encoding="iso-8859-1"?>
<!-- Uploaded to: SVG Repo, www.svgrepo.com, Generator: SVG Repo Mixer Tools -->
<svg version="1.1" id="Layer_1" xmlns="http://www.w3.org/2000/svg" xmlns:xlink="http://www.w3.org/1999/xlink" 
	 viewBox="0 0 512 512" xml:space="preserve">
<g>
	<path style="fill:#9BC9FD;" d="M321.413,126.654H190.594c-0.056,0-0.101-0.045-0.101-0.101l28.352-28.108h74.319l28.352,28.108
		C321.514,126.609,321.469,126.654,321.413,126.654z"/>
	<path style="fill:#9BC9FD;" d="M223.627,172.706h64.753c0.113,0,0.179-0.128,0.113-0.22l-32.376-45.369
		c-0.056-0.078-0.171-0.078-0.226,0l-32.376,45.369C223.447,172.578,223.513,172.706,223.627,172.706z"/>
</g>
<path style="fill:#59A4FF;" d="M321.049,126.654H190.957c-0.195,0-0.308,0.219-0.195,0.378l32.481,45.515
	c0.056,0.078,0.171,0.078,0.226,0l32.42-45.431c0.056-0.078,0.171-0.078,0.226,0l32.42,45.431c0.056,0.078,0.171,0.078,0.226,0
	l32.481-45.515C321.357,126.874,321.244,126.654,321.049,126.654z"/>
<path style="fill:#EEBF00;" d="M256.003,190.518c-86.644,0-156.882,70.238-156.882,156.882s70.238,156.882,156.882,156.882
	s156.882-70.238,156.882-156.882S342.647,190.518,256.003,190.518z M256.003,482.284c-74.495,0-134.884-60.39-134.884-134.884
	s60.39-134.884,134.884-134.884s134.884,60.39,134.884,134.884S330.498,482.284,256.003,482.284z"/>
<path style="fill:#CBA400;" d="M256.003,212.516c-74.495,0-134.884,60.39-134.884,134.884s60.39,134.884,134.884,134.884
	s134.884-60.39,134.884-134.884S330.498,212.516,256.003,212.516z M256.003,465.204c-65.062,0-117.804-52.743-117.804-117.804
	s52.743-117.804,117.804-117.804s117.804,52.743,117.804,117.804C373.807,412.461,321.065,465.204,256.003,465.204z"/>
<rect x="228.782" y="172.701" style="fill:#155C92;" width="54.435" height="17.811"/>
<rect x="248.284" width="15.437" height="55.646"/>
<rect x="321.925" y="17.4" transform="matrix(-0.9076 -0.4198 0.4198 -0.9076 609.8457 224.6539)" width="15.436" height="55.645"/>
<rect x="372.994" y="73.909" transform="matrix(-0.4251 -0.9051 0.9051 -0.4251 450.4791 489.5756)" width="15.437" height="55.644"/>
<rect x="103.462" y="94.026" transform="matrix(-0.9051 -0.4252 0.4252 -0.9051 206.849 249.6552)" width="55.646" height="15.437"/>
<rect x="154.529" y="37.505" transform="matrix(-0.4198 -0.9076 0.9076 -0.4198 217.8589 229.7135)" width="55.645" height="15.436"/>
<path d="M256.003,221.877c-69.213,0-125.523,56.309-125.523,125.523s56.31,125.523,125.523,125.523s125.523-56.309,125.523-125.523
	S325.216,221.877,256.003,221.877z M256.003,457.485c-60.701,0-110.086-49.384-110.086-110.086s49.384-110.086,110.086-110.086
	s110.086,49.384,110.086,110.086S316.704,457.485,256.003,457.485z"/>
<path d="M290.938,186.543v-6.561c0.103-0.035,0.206-0.07,0.307-0.11c0.074-0.026,0.148-0.05,0.22-0.079
	c0.048-0.021,0.095-0.041,0.142-0.063c1.35-0.553,2.549-1.471,3.437-2.699l32.488-45.525c0.128-0.18,0.231-0.372,0.342-0.559
	c0.854-1.253,1.355-2.765,1.355-4.393v-3.216l-32.891-32.611h-80.676l-32.891,32.611v3.216c0,1.632,0.504,3.147,1.363,4.403
	c0.112,0.187,0.215,0.38,0.343,0.56l32.507,45.552c0.829,1.148,1.95,2.009,3.215,2.561c0.281,0.136,0.57,0.252,0.867,0.354v6.561
	C147.03,202.608,91.399,268.625,91.399,347.399C91.399,438.16,165.24,512,256,512S420.6,438.16,420.6,347.399
	C420.604,268.625,364.974,202.608,290.938,186.543z M256.003,140.245l17.656,24.743h-35.313L256.003,140.245z M288.651,159.419
	l-16.37-22.938l-1.505-2.108h35.746L288.651,159.419z M222.021,106.164h67.964l12.883,12.772h-93.728L222.021,106.164z
	 M241.23,134.372l-17.873,25.045l-17.873-25.045H241.23z M236.505,182.799v-2.374h38.997v2.374H236.505z M256.003,496.563
	c-82.249,0-149.163-66.915-149.163-149.163s66.915-149.163,149.163-149.163s149.163,66.915,149.163,149.163
	S338.252,496.563,256.003,496.563z"/>
</svg>